<svg width="18" height="14" viewBox="0 0 18 14" fill="none" xmlns="http://www.w3.org/2000/svg">
<mask id="path-1-inside-1_24856_49" fill="white">
<path d="M17.1067 2.31364C17.1067 1.39697 16.3567 0.646973 15.4401 0.646973H2.10673C1.19006 0.646973 0.440063 1.39697 0.440063 2.31364V12.3136C0.440063 13.2303 1.19006 13.9803 2.10673 13.9803H15.4401C16.3567 13.9803 17.1067 13.2303 17.1067 12.3136V2.31364ZM15.4401 2.31364L8.7734 6.48031L2.10673 2.31364H15.4401ZM15.4401 12.3136H2.10673V3.98031L8.7734 8.14697L15.4401 3.98031V12.3136Z"/>
</mask>
<path d="M15.4401 2.31364L16.5001 4.00964L22.4137 0.313639H15.4401V2.31364ZM8.7734 6.48031L7.7134 8.1763L8.7734 8.8388L9.8334 8.1763L8.7734 6.48031ZM2.10673 2.31364V0.313639H-4.86686L1.04673 4.00964L2.10673 2.31364ZM15.4401 12.3136V14.3136H17.4401V12.3136H15.4401ZM2.10673 12.3136H0.10673V14.3136H2.10673V12.3136ZM2.10673 3.98031L3.16673 2.28431L0.10673 0.371811V3.98031H2.10673ZM8.7734 8.14697L7.7134 9.84297L8.7734 10.5055L9.8334 9.84297L8.7734 8.14697ZM15.4401 3.98031H17.4401V0.371811L14.3801 2.28431L15.4401 3.98031ZM19.1067 2.31364C19.1067 0.292403 17.4613 -1.35303 15.4401 -1.35303V2.64697C15.2522 2.64697 15.1067 2.50154 15.1067 2.31364H19.1067ZM15.4401 -1.35303H2.10673V2.64697H15.4401V-1.35303ZM2.10673 -1.35303C0.0854941 -1.35303 -1.55994 0.292403 -1.55994 2.31364H2.44006C2.44006 2.50154 2.29463 2.64697 2.10673 2.64697V-1.35303ZM-1.55994 2.31364V12.3136H2.44006V2.31364H-1.55994ZM-1.55994 12.3136C-1.55994 14.3349 0.0854941 15.9803 2.10673 15.9803V11.9803C2.29463 11.9803 2.44006 12.1257 2.44006 12.3136H-1.55994ZM2.10673 15.9803H15.4401V11.9803H2.10673V15.9803ZM15.4401 15.9803C17.4613 15.9803 19.1067 14.3349 19.1067 12.3136H15.1067C15.1067 12.1257 15.2522 11.9803 15.4401 11.9803V15.9803ZM19.1067 12.3136V2.31364H15.1067V12.3136H19.1067ZM14.3801 0.617643L7.7134 4.78431L9.8334 8.1763L16.5001 4.00964L14.3801 0.617643ZM9.8334 4.78431L3.16673 0.617643L1.04673 4.00964L7.7134 8.1763L9.8334 4.78431ZM2.10673 4.31364H15.4401V0.313639H2.10673V4.31364ZM15.4401 10.3136H2.10673V14.3136H15.4401V10.3136ZM4.10673 12.3136V3.98031H0.10673V12.3136H4.10673ZM1.04673 5.6763L7.7134 9.84297L9.8334 6.45098L3.16673 2.28431L1.04673 5.6763ZM9.8334 9.84297L16.5001 5.6763L14.3801 2.28431L7.7134 6.45098L9.8334 9.84297ZM13.4401 3.98031V12.3136H17.4401V3.98031H13.4401Z" fill="#637381" mask="url(#path-1-inside-1_24856_49)"/>
</svg>
